<mxfile host="diagram-viewer.giteeusercontent.com" modified="2023-07-15T08:34:08.141Z" agent="5.0 (Windows NT 10.0; Win64; x64) AppleWebKit/537.36 (KHTML, like Gecko) Chrome/114.0.0.0 Safari/537.36" version="${version}" etag="5P_OwxK7TlPCc6IAlL_K">
  <diagram id="0" name="第 1 页">
    <mxGraphModel dx="1920" dy="699" grid="1" gridSize="10" guides="1" tooltips="1" connect="1" arrows="1" fold="1" page="1" pageScale="1" pageWidth="827" pageHeight="1169" math="0" shadow="0">
      <root>
        <mxCell id="0" />
        <mxCell id="1" parent="0" />
        <mxCell id="1e0lDXAosaZysWI2dEni-4" style="edgeStyle=orthogonalEdgeStyle;rounded=0;orthogonalLoop=1;jettySize=auto;html=1;fontSize=10;" edge="1" parent="1" source="1e0lDXAosaZysWI2dEni-2" target="1e0lDXAosaZysWI2dEni-3">
          <mxGeometry relative="1" as="geometry" />
        </mxCell>
        <mxCell id="1e0lDXAosaZysWI2dEni-2" value="&lt;font style=&quot;font-size: 10px;&quot;&gt;BPF_PORG_TYPE_SOCK_OPS/&lt;br style=&quot;&quot;&gt;BPF_CGROUP_SOCK_OPS&lt;/font&gt;" style="rounded=0;whiteSpace=wrap;html=1;" vertex="1" parent="1">
          <mxGeometry x="14" y="470" width="180" height="40" as="geometry" />
        </mxCell>
        <mxCell id="1e0lDXAosaZysWI2dEni-6" style="edgeStyle=orthogonalEdgeStyle;rounded=0;orthogonalLoop=1;jettySize=auto;html=1;exitX=0.5;exitY=1;exitDx=0;exitDy=0;fontSize=10;" edge="1" parent="1" source="1e0lDXAosaZysWI2dEni-3" target="1e0lDXAosaZysWI2dEni-5">
          <mxGeometry relative="1" as="geometry" />
        </mxCell>
        <mxCell id="1e0lDXAosaZysWI2dEni-3" value="&lt;font style=&quot;font-size: 10px;&quot;&gt;根据目的地址查找listner&lt;/font&gt;" style="rhombus;whiteSpace=wrap;html=1;fontSize=10;" vertex="1" parent="1">
          <mxGeometry x="64" y="560" width="80" height="64" as="geometry" />
        </mxCell>
        <mxCell id="1e0lDXAosaZysWI2dEni-93" style="edgeStyle=orthogonalEdgeStyle;rounded=0;orthogonalLoop=1;jettySize=auto;html=1;exitX=0.5;exitY=1;exitDx=0;exitDy=0;entryX=0.5;entryY=0;entryDx=0;entryDy=0;fontSize=11;" edge="1" parent="1" source="1e0lDXAosaZysWI2dEni-5" target="1e0lDXAosaZysWI2dEni-8">
          <mxGeometry relative="1" as="geometry" />
        </mxCell>
        <mxCell id="1e0lDXAosaZysWI2dEni-5" value="找到listner" style="rounded=0;whiteSpace=wrap;html=1;fontSize=10;" vertex="1" parent="1">
          <mxGeometry x="54" y="660" width="100" height="40" as="geometry" />
        </mxCell>
        <mxCell id="1e0lDXAosaZysWI2dEni-12" style="edgeStyle=orthogonalEdgeStyle;rounded=0;orthogonalLoop=1;jettySize=auto;html=1;entryX=0.5;entryY=0;entryDx=0;entryDy=0;fontSize=10;" edge="1" parent="1" source="1e0lDXAosaZysWI2dEni-8" target="1e0lDXAosaZysWI2dEni-11">
          <mxGeometry relative="1" as="geometry" />
        </mxCell>
        <mxCell id="1e0lDXAosaZysWI2dEni-8" value="dst info" style="rhombus;whiteSpace=wrap;html=1;fontSize=10;" vertex="1" parent="1">
          <mxGeometry x="64" y="730" width="80" height="54" as="geometry" />
        </mxCell>
        <mxCell id="1e0lDXAosaZysWI2dEni-10" value="根据目标端口、协议类型&lt;br&gt;匹配具体的filter_chain" style="text;html=1;align=center;verticalAlign=middle;resizable=0;points=[];autosize=1;strokeColor=none;fillColor=none;fontSize=10;" vertex="1" parent="1">
          <mxGeometry x="-70" y="770" width="160" height="40" as="geometry" />
        </mxCell>
        <mxCell id="1e0lDXAosaZysWI2dEni-37" style="edgeStyle=orthogonalEdgeStyle;rounded=0;orthogonalLoop=1;jettySize=auto;html=1;entryX=0;entryY=0.5;entryDx=0;entryDy=0;fontSize=11;" edge="1" parent="1" source="1e0lDXAosaZysWI2dEni-11" target="1e0lDXAosaZysWI2dEni-15">
          <mxGeometry relative="1" as="geometry" />
        </mxCell>
        <mxCell id="1e0lDXAosaZysWI2dEni-11" value="find filter_chain" style="rounded=0;whiteSpace=wrap;html=1;fontSize=10;" vertex="1" parent="1">
          <mxGeometry x="59" y="816" width="90" height="40" as="geometry" />
        </mxCell>
        <mxCell id="1e0lDXAosaZysWI2dEni-18" style="edgeStyle=orthogonalEdgeStyle;rounded=0;orthogonalLoop=1;jettySize=auto;html=1;entryX=0.5;entryY=0;entryDx=0;entryDy=0;fontSize=11;" edge="1" parent="1" source="1e0lDXAosaZysWI2dEni-15" target="1e0lDXAosaZysWI2dEni-17">
          <mxGeometry relative="1" as="geometry" />
        </mxCell>
        <mxCell id="1e0lDXAosaZysWI2dEni-19" value="L4:tcp_porxy" style="edgeLabel;html=1;align=center;verticalAlign=middle;resizable=0;points=[];fontSize=11;" vertex="1" connectable="0" parent="1e0lDXAosaZysWI2dEni-18">
          <mxGeometry x="-0.3948" y="2" relative="1" as="geometry">
            <mxPoint x="-2" y="4" as="offset" />
          </mxGeometry>
        </mxCell>
        <mxCell id="1e0lDXAosaZysWI2dEni-47" style="edgeStyle=orthogonalEdgeStyle;rounded=0;orthogonalLoop=1;jettySize=auto;html=1;exitX=1;exitY=0.5;exitDx=0;exitDy=0;entryX=0;entryY=0.5;entryDx=0;entryDy=0;fontSize=11;" edge="1" parent="1" source="1e0lDXAosaZysWI2dEni-15" target="1e0lDXAosaZysWI2dEni-25">
          <mxGeometry relative="1" as="geometry" />
        </mxCell>
        <mxCell id="1e0lDXAosaZysWI2dEni-98" value="L7:&lt;br&gt;http_connection" style="edgeLabel;html=1;align=center;verticalAlign=middle;resizable=0;points=[];fontSize=11;" vertex="1" connectable="0" parent="1e0lDXAosaZysWI2dEni-47">
          <mxGeometry x="-0.135" y="2" relative="1" as="geometry">
            <mxPoint x="-34" y="-24" as="offset" />
          </mxGeometry>
        </mxCell>
        <mxCell id="1e0lDXAosaZysWI2dEni-15" value="匹配filter&lt;br&gt;类型" style="rhombus;whiteSpace=wrap;html=1;fontSize=10;" vertex="1" parent="1">
          <mxGeometry x="213" y="562" width="80" height="60" as="geometry" />
        </mxCell>
        <mxCell id="1e0lDXAosaZysWI2dEni-97" style="edgeStyle=orthogonalEdgeStyle;rounded=0;orthogonalLoop=1;jettySize=auto;html=1;exitX=0.5;exitY=1;exitDx=0;exitDy=0;entryX=0;entryY=0.5;entryDx=0;entryDy=0;fontSize=11;" edge="1" parent="1" source="1e0lDXAosaZysWI2dEni-17" target="1e0lDXAosaZysWI2dEni-49">
          <mxGeometry relative="1" as="geometry" />
        </mxCell>
        <mxCell id="1e0lDXAosaZysWI2dEni-17" value="&lt;font style=&quot;font-size: 11px;&quot;&gt;tcp_proxy_&lt;br&gt;manage&lt;/font&gt;" style="rounded=0;whiteSpace=wrap;html=1;fontSize=10;" vertex="1" parent="1">
          <mxGeometry x="200.5" y="670" width="105" height="40" as="geometry" />
        </mxCell>
        <mxCell id="1e0lDXAosaZysWI2dEni-34" style="edgeStyle=orthogonalEdgeStyle;rounded=0;orthogonalLoop=1;jettySize=auto;html=1;exitX=0.5;exitY=1;exitDx=0;exitDy=0;entryX=0.5;entryY=0;entryDx=0;entryDy=0;fontSize=11;" edge="1" parent="1" source="1e0lDXAosaZysWI2dEni-25" target="1e0lDXAosaZysWI2dEni-33">
          <mxGeometry relative="1" as="geometry" />
        </mxCell>
        <mxCell id="1e0lDXAosaZysWI2dEni-25" value="&lt;font style=&quot;font-size: 11px;&quot;&gt;http_connection_&lt;br&gt;manage&lt;/font&gt;" style="rounded=0;whiteSpace=wrap;html=1;fontSize=10;" vertex="1" parent="1">
          <mxGeometry x="339.5" y="430" width="105" height="40" as="geometry" />
        </mxCell>
        <mxCell id="1e0lDXAosaZysWI2dEni-36" style="edgeStyle=orthogonalEdgeStyle;rounded=0;orthogonalLoop=1;jettySize=auto;html=1;exitX=0.5;exitY=1;exitDx=0;exitDy=0;entryX=0.5;entryY=0;entryDx=0;entryDy=0;fontSize=11;" edge="1" parent="1" source="1e0lDXAosaZysWI2dEni-33" target="1e0lDXAosaZysWI2dEni-35">
          <mxGeometry relative="1" as="geometry" />
        </mxCell>
        <mxCell id="1e0lDXAosaZysWI2dEni-33" value="&lt;span style=&quot;font-size: 11px;&quot;&gt;根据route name找到route_config&lt;/span&gt;" style="rounded=0;whiteSpace=wrap;html=1;fontSize=10;" vertex="1" parent="1">
          <mxGeometry x="339.5" y="510" width="105" height="40" as="geometry" />
        </mxCell>
        <mxCell id="1e0lDXAosaZysWI2dEni-44" style="edgeStyle=orthogonalEdgeStyle;rounded=0;orthogonalLoop=1;jettySize=auto;html=1;exitX=0.5;exitY=1;exitDx=0;exitDy=0;entryX=0.5;entryY=0;entryDx=0;entryDy=0;fontSize=11;" edge="1" parent="1" source="1e0lDXAosaZysWI2dEni-35" target="1e0lDXAosaZysWI2dEni-43">
          <mxGeometry relative="1" as="geometry" />
        </mxCell>
        <mxCell id="1e0lDXAosaZysWI2dEni-35" value="根据domain&lt;br&gt;匹配virt_host" style="rhombus;whiteSpace=wrap;html=1;fontSize=11;" vertex="1" parent="1">
          <mxGeometry x="339.5" y="562" width="102.5" height="70" as="geometry" />
        </mxCell>
        <mxCell id="1e0lDXAosaZysWI2dEni-96" style="edgeStyle=orthogonalEdgeStyle;rounded=0;orthogonalLoop=1;jettySize=auto;html=1;exitX=0.5;exitY=1;exitDx=0;exitDy=0;entryX=0.5;entryY=0;entryDx=0;entryDy=0;fontSize=11;" edge="1" parent="1" source="1e0lDXAosaZysWI2dEni-43" target="1e0lDXAosaZysWI2dEni-49">
          <mxGeometry relative="1" as="geometry" />
        </mxCell>
        <mxCell id="1e0lDXAosaZysWI2dEni-43" value="根据prefix&lt;br&gt;匹配route项" style="rhombus;whiteSpace=wrap;html=1;fontSize=11;" vertex="1" parent="1">
          <mxGeometry x="339.5" y="660" width="102.5" height="70" as="geometry" />
        </mxCell>
        <mxCell id="1e0lDXAosaZysWI2dEni-53" style="edgeStyle=orthogonalEdgeStyle;rounded=0;orthogonalLoop=1;jettySize=auto;html=1;exitX=0.5;exitY=1;exitDx=0;exitDy=0;entryX=0.5;entryY=0;entryDx=0;entryDy=0;fontSize=11;" edge="1" parent="1" source="1e0lDXAosaZysWI2dEni-49" target="1e0lDXAosaZysWI2dEni-52">
          <mxGeometry relative="1" as="geometry" />
        </mxCell>
        <mxCell id="1e0lDXAosaZysWI2dEni-49" value="解析cluster信息" style="rounded=0;whiteSpace=wrap;html=1;fontSize=11;" vertex="1" parent="1">
          <mxGeometry x="336" y="755" width="110" height="39" as="geometry" />
        </mxCell>
        <mxCell id="1e0lDXAosaZysWI2dEni-69" value="N" style="edgeStyle=orthogonalEdgeStyle;rounded=0;orthogonalLoop=1;jettySize=auto;html=1;entryX=0.5;entryY=0;entryDx=0;entryDy=0;fontSize=11;" edge="1" parent="1" source="1e0lDXAosaZysWI2dEni-52" target="1e0lDXAosaZysWI2dEni-65">
          <mxGeometry relative="1" as="geometry" />
        </mxCell>
        <mxCell id="1e0lDXAosaZysWI2dEni-79" value="Y" style="edgeStyle=orthogonalEdgeStyle;rounded=0;orthogonalLoop=1;jettySize=auto;html=1;exitX=0;exitY=0.5;exitDx=0;exitDy=0;entryX=1;entryY=0.5;entryDx=0;entryDy=0;fontSize=11;" edge="1" parent="1" source="1e0lDXAosaZysWI2dEni-52" target="1e0lDXAosaZysWI2dEni-62">
          <mxGeometry relative="1" as="geometry" />
        </mxCell>
        <mxCell id="1e0lDXAosaZysWI2dEni-52" value="是否灰度&lt;br&gt;集群配置" style="rhombus;whiteSpace=wrap;html=1;fontSize=11;" vertex="1" parent="1">
          <mxGeometry x="351" y="815" width="80" height="60" as="geometry" />
        </mxCell>
        <mxCell id="1e0lDXAosaZysWI2dEni-81" style="edgeStyle=orthogonalEdgeStyle;rounded=0;orthogonalLoop=1;jettySize=auto;html=1;exitX=0.5;exitY=1;exitDx=0;exitDy=0;entryX=0;entryY=0.5;entryDx=0;entryDy=0;fontSize=11;" edge="1" parent="1" source="1e0lDXAosaZysWI2dEni-62" target="1e0lDXAosaZysWI2dEni-65">
          <mxGeometry relative="1" as="geometry" />
        </mxCell>
        <mxCell id="1e0lDXAosaZysWI2dEni-62" value="&lt;span style=&quot;font-size: 11px;&quot;&gt;根据灰度比例&lt;br&gt;选择一个cluster&lt;/span&gt;" style="rounded=0;whiteSpace=wrap;html=1;fontSize=10;" vertex="1" parent="1">
          <mxGeometry x="207.5" y="825" width="98" height="40" as="geometry" />
        </mxCell>
        <mxCell id="1e0lDXAosaZysWI2dEni-82" style="edgeStyle=orthogonalEdgeStyle;rounded=0;orthogonalLoop=1;jettySize=auto;html=1;exitX=1;exitY=0.5;exitDx=0;exitDy=0;entryX=0;entryY=0.5;entryDx=0;entryDy=0;fontSize=11;" edge="1" parent="1" source="1e0lDXAosaZysWI2dEni-65" target="1e0lDXAosaZysWI2dEni-76">
          <mxGeometry relative="1" as="geometry" />
        </mxCell>
        <mxCell id="1e0lDXAosaZysWI2dEni-65" value="&lt;span style=&quot;font-size: 11px;&quot;&gt;提取cluster_name&lt;/span&gt;" style="rounded=0;whiteSpace=wrap;html=1;fontSize=10;" vertex="1" parent="1">
          <mxGeometry x="338.5" y="905" width="105" height="40" as="geometry" />
        </mxCell>
        <mxCell id="1e0lDXAosaZysWI2dEni-83" style="edgeStyle=orthogonalEdgeStyle;rounded=0;orthogonalLoop=1;jettySize=auto;html=1;entryX=0.5;entryY=0;entryDx=0;entryDy=0;fontSize=11;" edge="1" parent="1" source="1e0lDXAosaZysWI2dEni-76" target="1e0lDXAosaZysWI2dEni-77">
          <mxGeometry relative="1" as="geometry" />
        </mxCell>
        <mxCell id="1e0lDXAosaZysWI2dEni-76" value="&lt;span style=&quot;font-size: 11px;&quot;&gt;根据cluster_name找到对应的endpoints&lt;/span&gt;" style="rounded=0;whiteSpace=wrap;html=1;fontSize=10;" vertex="1" parent="1">
          <mxGeometry x="514" y="572" width="130" height="40" as="geometry" />
        </mxCell>
        <mxCell id="1e0lDXAosaZysWI2dEni-84" value="" style="edgeStyle=orthogonalEdgeStyle;rounded=0;orthogonalLoop=1;jettySize=auto;html=1;fontSize=11;" edge="1" parent="1" source="1e0lDXAosaZysWI2dEni-77" target="1e0lDXAosaZysWI2dEni-78">
          <mxGeometry relative="1" as="geometry" />
        </mxCell>
        <mxCell id="1e0lDXAosaZysWI2dEni-77" value="&lt;span style=&quot;font-size: 11px;&quot;&gt;根据LB策略选择&lt;br&gt;一个endpoint后端&lt;/span&gt;" style="rounded=0;whiteSpace=wrap;html=1;fontSize=10;" vertex="1" parent="1">
          <mxGeometry x="514" y="670" width="130" height="40" as="geometry" />
        </mxCell>
        <mxCell id="1e0lDXAosaZysWI2dEni-86" value="" style="edgeStyle=orthogonalEdgeStyle;rounded=0;orthogonalLoop=1;jettySize=auto;html=1;fontSize=11;" edge="1" parent="1" source="1e0lDXAosaZysWI2dEni-78" target="1e0lDXAosaZysWI2dEni-85">
          <mxGeometry relative="1" as="geometry" />
        </mxCell>
        <mxCell id="1e0lDXAosaZysWI2dEni-78" value="&lt;span style=&quot;font-size: 11px;&quot;&gt;使用endpoint地址刷新sk目的地址&lt;/span&gt;" style="rounded=0;whiteSpace=wrap;html=1;fontSize=10;" vertex="1" parent="1">
          <mxGeometry x="514" y="755" width="130" height="40" as="geometry" />
        </mxCell>
        <mxCell id="1e0lDXAosaZysWI2dEni-85" value="&lt;span style=&quot;font-size: 11px;&quot;&gt;后续建链流程&lt;/span&gt;" style="rounded=0;whiteSpace=wrap;html=1;fontSize=10;" vertex="1" parent="1">
          <mxGeometry x="514" y="840" width="130" height="40" as="geometry" />
        </mxCell>
      </root>
    </mxGraphModel>
  </diagram>
</mxfile>
